<svg width="189" height="63" viewBox="0 0 189 63" fill="none" xmlns="http://www.w3.org/2000/svg">
<g clip-path="url(#clip0)">
<path d="M142.7 35.3C137 36.7 135.7 41.4 133.6 45.8C132.6 47.9 130.5 50.9 128.8 50.9C125.2 51 123 48.1 122.6 44.3C122.2 40.5 121.7 36.7 120.1 32.5C117 37.4 114.1 42.5 110.7 47.2C109.4 49.1 106.1 51.9 105.3 51.5C102.4 49.8 99 47.4 97.9 44.4C96.5 40.5 97.1 36 96.8 31.5C91.7 38.5 86.7 45.3 80.4 53.8C77.4 50.9 75.2 48.8 73 46.7C73.7 46.4 74.4 46.2 75.1 45.9C72.7 47.8 70.4 49.9 67.8 51.7C63.8 54.5 60.3 53.2 59 48.6C56.8 40.7 63.4 24.8 70.9 21.7C73.2 20.7 76.5 22.3 79.4 22.7C78.6 24.3 77.9 25.8 77.1 27.6C78 27.7 79.6 27.8 81.6 27.9C81.6 32.3 81.6 36.5 81.6 40.7C81.9 40.8 82.1 41 82.4 41.1C84.1 38.4 85.8 35.7 87.6 33C90.2 29.2 92.6 25.2 95.5 21.7C96.7 20.3 99.7 18.7 100.8 19.2C102.7 20.2 104.5 22.7 104.9 24.8C105.6 28.4 105.1 32.3 106.1 36.4C107.9 34 109.7 31.5 111.6 29.1C115.5 24.5 121.3 22.9 125.3 26.1C127.7 28 128.8 31.7 129.9 33.7C134.2 32.2 138.9 29.4 143.7 29.2C150 28.9 151.7 34.5 152.2 41.8C155 38.9 156.7 37.4 158.2 35.6C159.1 34.5 159.3 32.7 160.4 31.7C161.8 30.5 163.7 29.1 165.4 29.2C166.5 29.3 168.1 31.7 168.2 33.2C168.6 36.7 168.3 40.4 168.3 43.9C168.7 44.1 169.2 44.3 169.6 44.6C171.9 42 174.2 39.4 177 36.3C178.1 37.9 179.3 39.5 180.6 41.3C177.4 45.2 176.6 51.5 170.4 51.5C165.5 51.5 163.9 47 162.6 42.5C161.9 42.9 161.4 43.2 161 43.5C158.9 45.2 156 48.7 154.8 48.2C151.2 46.7 147.9 43.9 145.1 41.1C143.8 39.8 143.5 37.3 142.7 35.3ZM63.4 47.1C64.2 47.5 65 47.9 65.8 48.3C67.7 44.2 69.5 40.1 71.4 35.9C70.7 35.6 70 35.3 69.3 34.9C67.3 39 65.3 43.1 63.4 47.1Z" fill="white"/>
<path d="M23.5 48.7C24.7 45.1 26.2 41.5 26.9 37.8C27.6 33.9 28.8 31.3 33.3 31C37.8 30.7 39.6 33 40.3 37C40.8 40 41.6 43 42.5 46.8C50.7 38.7 52.5 28.8 55.9 19.6C56.1 29.3 57 39.2 51.2 47.7C46 55.3 40.8 54.9 35.4 47.6C34.8 46.8 34.3 46.1 33.5 45.1C31.9 47.5 30.5 49.8 28.9 51.9C25.7 55.8 22.9 56.1 19.2 52.5C17.5 50.8 15.8 48.6 15.3 46.3C13.9 39.8 13.2 33.2 12.3 26.7C11.9 23.8 11.8 20.9 11.6 17.9C17.9 15.3 22.9 18.3 23 25.4C23 29.7 21.9 33.9 21.5 38.2C21.2 41.5 21.2 44.9 21 48.3C21.8 48.3 22.6 48.5 23.5 48.7Z" fill="white"/>
<path d="M158 10.9C164.4 7.6 167.1 13.9 171.1 15.7C166.3 21.2 163.2 20.3 158 10.9Z" fill="white"/>
</g>
<defs>
<clipPath id="clip0">
<rect width="188.4" height="62.8" fill="white"/>
</clipPath>
</defs>
</svg>
